<?xml version="1.0" standalone="no"?>
<!DOCTYPE svg PUBLIC "-//W3C//DTD SVG 20010904//EN"
 "http://www.w3.org/TR/2001/REC-SVG-20010904/DTD/svg10.dtd">
<svg version="1.0" xmlns="http://www.w3.org/2000/svg"
 width="512.000000pt" height="512.000000pt" viewBox="0 0 512.000000 512.000000"
 preserveAspectRatio="xMidYMid meet">

<g transform="translate(0.000000,512.000000) scale(0.100000,-0.100000)"
fill="#000000" stroke="none">
<path d="M420 5109 c-90 -15 -193 -70 -264 -142 -64 -63 -92 -107 -130 -207
l-21 -55 -3 -2100 c-2 -1438 1 -2122 8 -2170 16 -103 67 -204 143 -279 63 -64
107 -92 207 -130 l55 -21 2100 -3 c1438 -2 2122 1 2170 8 103 16 204 67 279
143 64 63 92 107 130 207 l21 55 3 2100 c2 1438 -1 2122 -8 2170 -16 103 -67
204 -143 279 -63 64 -107 92 -207 130 l-55 21 -2115 1 c-1231 1 -2138 -2
-2170 -7z m2510 -1034 c-36 -109 -157 -203 -328 -255 -69 -21 -102 -21 -102
-1 0 5 32 29 71 53 202 124 251 164 330 267 43 58 44 58 47 29 2 -16 -6 -58
-18 -93z m-1300 74 c80 -5 204 -18 275 -29 197 -28 436 -51 622 -58 108 -5
168 -11 170 -18 5 -16 -119 -60 -240 -85 -91 -19 -123 -21 -302 -15 -110 3
-265 14 -345 25 -80 11 -233 32 -340 46 -163 23 -218 26 -333 22 -152 -6 -157
-2 -69 46 64 35 155 58 267 67 133 11 138 11 295 -1z m1605 -155 c28 -164 16
-377 -36 -624 -27 -127 -76 -307 -160 -579 -173 -561 -230 -841 -231 -1131 0
-125 16 -289 31 -317 4 -8 14 -4 32 11 24 21 26 30 32 142 4 65 11 132 15 148
19 70 45 24 57 -99 3 -33 8 -74 11 -92 l5 -32 37 13 37 13 16 144 c34 293 76
473 256 1099 137 477 183 696 183 871 0 32 4 59 9 59 5 0 17 -19 27 -42 13
-32 19 -79 22 -179 7 -228 -34 -486 -149 -929 -100 -384 -136 -513 -219 -765
-44 -131 -78 -240 -76 -242 1 -2 63 2 137 8 217 17 529 -2 764 -46 104 -19
190 -35 192 -35 2 0 3 -4 3 -8 0 -15 -47 -31 -153 -53 -90 -19 -123 -20 -277
-16 -96 4 -245 14 -330 23 -343 36 -543 16 -667 -66 l-33 -22 -11 29 c-39 100
-61 224 -66 369 -11 318 42 614 214 1184 207 688 273 985 273 1219 0 43 3 81
7 85 12 12 31 -45 48 -140z m-255 9 c-62 -167 -162 -283 -328 -380 -122 -72
-292 -117 -487 -129 l-110 -7 3 -121 c4 -143 -14 -300 -63 -541 -99 -485 -398
-1505 -442 -1505 -11 0 6 246 27 393 32 217 69 368 273 1102 94 337 134 519
139 625 l3 55 -35 0 -35 0 -6 -115 c-4 -63 -14 -144 -24 -180 -66 -259 -164
-552 -282 -849 -73 -182 -101 -237 -115 -223 -23 23 70 531 127 691 25 72 135
626 135 682 0 10 -10 19 -25 21 -27 6 -29 1 -40 -72 -15 -99 -78 -341 -170
-645 -196 -650 -233 -852 -222 -1220 7 -246 51 -456 129 -608 11 -22 17 -42
13 -45 -3 -4 -9 -2 -13 4 -4 5 -28 39 -53 75 -126 174 -195 398 -206 669 -13
321 62 696 272 1350 63 198 150 509 143 515 -7 7 -529 88 -613 95 -51 5 -137
4 -199 -2 -59 -5 -110 -7 -113 -4 -8 7 85 52 163 78 63 21 85 23 274 22 212 0
267 -7 635 -74 179 -32 385 -45 506 -32 343 38 621 193 733 410 27 52 30 30 6
-35z m369 -26 c104 -182 124 -538 46 -841 -88 -344 -333 -1006 -372 -1006 -13
0 -14 10 -9 63 14 121 68 384 121 592 136 533 215 1109 168 1231 -3 8 0 14 5
14 6 0 24 -24 41 -53z m-1773 -45 c327 -62 582 -128 576 -148 -2 -5 -20 -15
-40 -22 -47 -17 -357 -9 -512 13 -285 40 -704 41 -820 1 -24 -8 -46 -13 -48
-11 -2 2 13 22 34 44 44 50 167 113 274 141 113 30 322 23 536 -18z m-128
-2324 c6 -35 18 -130 27 -213 17 -160 53 -324 90 -417 30 -74 13 -77 -44 -11
-102 120 -136 250 -129 497 6 213 33 282 56 144z m2971 -228 c-35 -76 -89
-134 -158 -169 -47 -25 -143 -51 -183 -51 -38 0 -37 26 3 48 139 76 209 125
282 197 95 93 108 87 56 -25z m20 -102 c-81 -162 -189 -253 -369 -309 -72 -23
-87 -24 -390 -24 -173 0 -409 6 -525 13 -201 13 -325 10 -490 -14 l-40 -5 39
35 c129 117 330 134 751 61 357 -61 535 -47 751 60 98 48 213 145 269 225 40
58 43 35 4 -42z m-928 -32 c168 -35 263 -66 267 -88 5 -29 -55 -33 -423 -30
-427 3 -512 -7 -642 -79 -29 -16 -53 -27 -53 -24 0 19 35 67 73 102 153 141
453 187 778 119z"/>
</g>
</svg>
